<svg width="21" height="20" viewBox="0 0 21 20" fill="none" xmlns="http://www.w3.org/2000/svg">
<g clip-path="url(#clip0_166_1431)">
<path d="M17.5605 2.83203C17.6517 2.88411 17.7266 2.95898 17.7852 3.05664C17.8438 3.1543 17.873 3.25846 17.873 3.36914C17.873 3.42122 17.8665 3.47005 17.8535 3.51562C17.8405 3.5612 17.8242 3.60677 17.8047 3.65234L10.9004 17.4707C10.8418 17.5944 10.7507 17.6855 10.627 17.7441L8.9375 18.5938C8.72917 18.6979 8.50456 18.75 8.26367 18.75H8.17578C8.14974 18.75 8.11719 18.7467 8.07812 18.7402L7.61914 19.6582C7.56706 19.7624 7.49219 19.8438 7.39453 19.9023C7.29688 19.9609 7.1862 19.9935 7.0625 20C6.89323 20 6.74674 19.9382 6.62305 19.8145C6.49935 19.6908 6.4375 19.5443 6.4375 19.375C6.4375 19.2969 6.46029 19.1992 6.50586 19.082C6.55143 18.9648 6.60352 18.8444 6.66211 18.7207C6.7207 18.597 6.78581 18.4766 6.85742 18.3594C6.92904 18.2422 6.97786 18.151 7.00391 18.0859C6.83464 17.8255 6.75 17.5423 6.75 17.2363V15.625C6.75 15.5208 6.77279 15.4264 6.81836 15.3418L12.4434 4.0918L11.8086 3.7793L9.49414 8.4082C9.44206 8.51237 9.36719 8.59375 9.26953 8.65234C9.17188 8.71094 9.0612 8.74349 8.9375 8.75C8.76823 8.75 8.62175 8.68815 8.49805 8.56445C8.37435 8.44075 8.3125 8.29427 8.3125 8.125C8.3125 8.04036 8.33529 7.94596 8.38086 7.8418L10.7148 3.17383C10.819 2.96549 10.959 2.80273 11.1348 2.68555C11.3105 2.56836 11.5156 2.50651 11.75 2.5C11.9779 2.5 12.1927 2.55534 12.3945 2.66602C12.5964 2.77669 12.7982 2.88086 13 2.97852L13.6934 1.5918C13.7454 1.48112 13.8203 1.39648 13.918 1.33789C14.0156 1.2793 14.1263 1.25 14.25 1.25C14.3346 1.25 14.4062 1.26302 14.4648 1.28906C14.543 1.13281 14.6178 0.979818 14.6895 0.830078C14.7611 0.680339 14.8457 0.540365 14.9434 0.410156C15.041 0.279948 15.1582 0.182292 15.2949 0.117188C15.4316 0.0520833 15.6042 0.0130208 15.8125 0C16.0208 0 16.2194 0.0488281 16.4082 0.146484L17.3262 0.605469C17.5345 0.709635 17.6973 0.846354 17.8145 1.01562C17.9316 1.1849 17.9935 1.39323 18 1.64062C18 1.86198 17.9512 2.06706 17.8535 2.25586C17.7559 2.44466 17.6582 2.63672 17.5605 2.83203ZM15.5879 1.8457L16.4375 2.26562L16.7207 1.69922L15.8711 1.2793L15.5879 1.8457ZM16.4082 3.65234L14.5332 2.71484L8 15.7715V17.2363C8 17.3079 8.02604 17.3698 8.07812 17.4219C8.13021 17.474 8.19206 17.5 8.26367 17.5C8.28971 17.5 8.3418 17.4837 8.41992 17.4512C8.49805 17.4186 8.59245 17.3763 8.70312 17.3242C8.8138 17.2721 8.92773 17.2168 9.04492 17.1582C9.16211 17.0996 9.2793 17.0378 9.39648 16.9727C9.51367 16.9076 9.61133 16.8555 9.68945 16.8164C9.76758 16.7773 9.82943 16.7448 9.875 16.7188L16.4082 3.65234ZM18 7.5C18.3451 7.5 18.6673 7.5651 18.9668 7.69531C19.2663 7.82552 19.5332 8.00456 19.7676 8.23242C20.002 8.46029 20.181 8.72396 20.3047 9.02344C20.4284 9.32292 20.4935 9.64844 20.5 10C20.5 10.3451 20.4349 10.6673 20.3047 10.9668C20.1745 11.2663 19.9954 11.5332 19.7676 11.7676C19.5397 12.002 19.276 12.181 18.9766 12.3047C18.6771 12.4284 18.3516 12.4935 18 12.5H15.1875L15.8125 11.25H18C18.1758 11.25 18.3385 11.2174 18.4883 11.1523C18.638 11.0872 18.7682 10.9993 18.8789 10.8887C18.9896 10.778 19.0807 10.6445 19.1523 10.4883C19.224 10.332 19.2565 10.1693 19.25 10C19.25 9.82422 19.2174 9.66146 19.1523 9.51172C19.0872 9.36198 18.9993 9.23177 18.8887 9.12109C18.778 9.01042 18.6445 8.91927 18.4883 8.84766C18.332 8.77604 18.1693 8.74349 18 8.75C17.8307 8.75 17.6842 8.68815 17.5605 8.56445C17.4368 8.44075 17.375 8.29427 17.375 8.125C17.375 7.95573 17.4368 7.80924 17.5605 7.68555C17.6842 7.56185 17.8307 7.5 18 7.5ZM1.75 15.625C1.75 16.0547 1.83138 16.4583 1.99414 16.8359C2.1569 17.2135 2.37826 17.5456 2.6582 17.832C2.93815 18.1185 3.27018 18.3431 3.6543 18.5059C4.03841 18.6686 4.44531 18.75 4.875 18.75H5.30469C5.27214 18.8477 5.24609 18.9486 5.22656 19.0527C5.20703 19.1569 5.19401 19.2643 5.1875 19.375C5.1875 19.4857 5.19727 19.5931 5.2168 19.6973C5.23633 19.8014 5.26562 19.9023 5.30469 20H4.875C4.26953 20 3.70312 19.8861 3.17578 19.6582C2.64844 19.4303 2.1862 19.1178 1.78906 18.7207C1.39193 18.3236 1.07943 17.8613 0.851562 17.334C0.623698 16.8066 0.50651 16.237 0.5 15.625C0.5 15.0195 0.613932 14.4531 0.841797 13.9258C1.06966 13.3984 1.38216 12.9362 1.7793 12.5391C2.17643 12.1419 2.63867 11.8294 3.16602 11.6016C3.69336 11.3737 4.26302 11.2565 4.875 11.25H7.0625L6.4375 12.5H4.875C4.44531 12.5 4.04167 12.5814 3.66406 12.7441C3.28646 12.9069 2.95443 13.1315 2.66797 13.418C2.38151 13.7044 2.1569 14.0365 1.99414 14.4141C1.83138 14.7917 1.75 15.1953 1.75 15.625Z" fill="white"/>
</g>
<defs>
<clipPath id="clip0_166_1431">
<rect width="20" height="20" fill="white" transform="translate(0.5)"/>
</clipPath>
</defs>
</svg>
