<svg width="17" height="17" viewBox="0 0 17 17" fill="none" xmlns="http://www.w3.org/2000/svg">
<g clip-path="url(#clip0_166_1482)">
<path d="M14.1484 2.76562C14.2214 2.80729 14.2812 2.86719 14.3281 2.94531C14.375 3.02344 14.3984 3.10677 14.3984 3.19531C14.3984 3.23698 14.3932 3.27604 14.3828 3.3125C14.3724 3.34896 14.3594 3.38542 14.3438 3.42188L8.82031 14.4766C8.77344 14.5755 8.70052 14.6484 8.60156 14.6953L7.25 15.375C7.08333 15.4583 6.90365 15.5 6.71094 15.5H6.64062C6.61979 15.5 6.59375 15.4974 6.5625 15.4922L6.19531 16.2266C6.15365 16.3099 6.09375 16.375 6.01562 16.4219C5.9375 16.4688 5.84896 16.4948 5.75 16.5C5.61458 16.5 5.4974 16.4505 5.39844 16.3516C5.29948 16.2526 5.25 16.1354 5.25 16C5.25 15.9375 5.26823 15.8594 5.30469 15.7656C5.34115 15.6719 5.38281 15.5755 5.42969 15.4766C5.47656 15.3776 5.52865 15.2812 5.58594 15.1875C5.64323 15.0938 5.68229 15.0208 5.70312 14.9688C5.56771 14.7604 5.5 14.5339 5.5 14.2891V13C5.5 12.9167 5.51823 12.8411 5.55469 12.7734L10.0547 3.77344L9.54688 3.52344L7.69531 7.22656C7.65365 7.3099 7.59375 7.375 7.51562 7.42188C7.4375 7.46875 7.34896 7.49479 7.25 7.5C7.11458 7.5 6.9974 7.45052 6.89844 7.35156C6.79948 7.2526 6.75 7.13542 6.75 7C6.75 6.93229 6.76823 6.85677 6.80469 6.77344L8.67188 3.03906C8.75521 2.8724 8.86719 2.74219 9.00781 2.64844C9.14844 2.55469 9.3125 2.50521 9.5 2.5C9.68229 2.5 9.85417 2.54427 10.0156 2.63281C10.1771 2.72135 10.3385 2.80469 10.5 2.88281L11.0547 1.77344C11.0964 1.6849 11.1562 1.61719 11.2344 1.57031C11.3125 1.52344 11.401 1.5 11.5 1.5C11.5677 1.5 11.625 1.51042 11.6719 1.53125C11.7344 1.40625 11.7943 1.28385 11.8516 1.16406C11.9089 1.04427 11.9766 0.932292 12.0547 0.828125C12.1328 0.723958 12.2266 0.645833 12.3359 0.59375C12.4453 0.541667 12.5833 0.510417 12.75 0.5C12.9167 0.5 13.0755 0.539062 13.2266 0.617188L13.9609 0.984375C14.1276 1.06771 14.2578 1.17708 14.3516 1.3125C14.4453 1.44792 14.4948 1.61458 14.5 1.8125C14.5 1.98958 14.4609 2.15365 14.3828 2.30469C14.3047 2.45573 14.2266 2.60938 14.1484 2.76562ZM12.5703 1.97656L13.25 2.3125L13.4766 1.85938L12.7969 1.52344L12.5703 1.97656ZM13.2266 3.42188L11.7266 2.67188L6.5 13.1172V14.2891C6.5 14.3464 6.52083 14.3958 6.5625 14.4375C6.60417 14.4792 6.65365 14.5 6.71094 14.5C6.73177 14.5 6.77344 14.487 6.83594 14.4609C6.89844 14.4349 6.97396 14.401 7.0625 14.3594C7.15104 14.3177 7.24219 14.2734 7.33594 14.2266C7.42969 14.1797 7.52344 14.1302 7.61719 14.0781C7.71094 14.026 7.78906 13.9844 7.85156 13.9531C7.91406 13.9219 7.96354 13.8958 8 13.875L13.2266 3.42188ZM14.5 6.5C14.776 6.5 15.0339 6.55208 15.2734 6.65625C15.513 6.76042 15.7266 6.90365 15.9141 7.08594C16.1016 7.26823 16.2448 7.47917 16.3438 7.71875C16.4427 7.95833 16.4948 8.21875 16.5 8.5C16.5 8.77604 16.4479 9.03385 16.3438 9.27344C16.2396 9.51302 16.0964 9.72656 15.9141 9.91406C15.7318 10.1016 15.5208 10.2448 15.2812 10.3438C15.0417 10.4427 14.7812 10.4948 14.5 10.5H12.25L12.75 9.5H14.5C14.6406 9.5 14.7708 9.47396 14.8906 9.42188C15.0104 9.36979 15.1146 9.29948 15.2031 9.21094C15.2917 9.1224 15.3646 9.01562 15.4219 8.89062C15.4792 8.76562 15.5052 8.63542 15.5 8.5C15.5 8.35938 15.474 8.22917 15.4219 8.10938C15.3698 7.98958 15.2995 7.88542 15.2109 7.79688C15.1224 7.70833 15.0156 7.63542 14.8906 7.57812C14.7656 7.52083 14.6354 7.49479 14.5 7.5C14.3646 7.5 14.2474 7.45052 14.1484 7.35156C14.0495 7.2526 14 7.13542 14 7C14 6.86458 14.0495 6.7474 14.1484 6.64844C14.2474 6.54948 14.3646 6.5 14.5 6.5ZM1.5 13C1.5 13.3438 1.5651 13.6667 1.69531 13.9688C1.82552 14.2708 2.0026 14.5365 2.22656 14.7656C2.45052 14.9948 2.71615 15.1745 3.02344 15.3047C3.33073 15.4349 3.65625 15.5 4 15.5H4.34375C4.31771 15.5781 4.29688 15.6589 4.28125 15.7422C4.26562 15.8255 4.25521 15.9115 4.25 16C4.25 16.0885 4.25781 16.1745 4.27344 16.2578C4.28906 16.3411 4.3125 16.4219 4.34375 16.5H4C3.51562 16.5 3.0625 16.4089 2.64062 16.2266C2.21875 16.0443 1.84896 15.7943 1.53125 15.4766C1.21354 15.1589 0.963542 14.7891 0.78125 14.3672C0.598958 13.9453 0.505208 13.4896 0.5 13C0.5 12.5156 0.591146 12.0625 0.773438 11.6406C0.955729 11.2188 1.20573 10.849 1.52344 10.5312C1.84115 10.2135 2.21094 9.96354 2.63281 9.78125C3.05469 9.59896 3.51042 9.50521 4 9.5H5.75L5.25 10.5H4C3.65625 10.5 3.33333 10.5651 3.03125 10.6953C2.72917 10.8255 2.46354 11.0052 2.23438 11.2344C2.00521 11.4635 1.82552 11.7292 1.69531 12.0312C1.5651 12.3333 1.5 12.6562 1.5 13Z" fill="#211D75"/>
</g>
<defs>
<clipPath id="clip0_166_1482">
<rect width="16" height="16" fill="white" transform="translate(0.5 0.5)"/>
</clipPath>
</defs>
</svg>
