<svg width="33" height="33" viewBox="0 0 33 33" fill="none" xmlns="http://www.w3.org/2000/svg">
<path d="M16.3343 23.1667L17.6676 20.5001V13.6441C19.9623 13.0481 21.6676 10.9774 21.6676 8.50008C21.6676 5.55875 19.2756 3.16675 16.3343 3.16675C13.393 3.16675 11.001 5.55875 11.001 8.50008C11.001 10.9774 12.7063 13.0481 15.001 13.6441V20.5001L16.3343 23.1667ZM13.6676 8.50008C13.6676 7.02941 14.8636 5.83341 16.3343 5.83341C17.805 5.83341 19.001 7.02941 19.001 8.50008C19.001 9.97075 17.805 11.1667 16.3343 11.1667C14.8636 11.1667 13.6676 9.97075 13.6676 8.50008Z" fill="#211D75"/>
<path d="M22.0236 14.5841L21.313 17.1548C24.7676 18.1094 27.001 19.9454 27.001 21.8334C27.001 24.3561 22.621 27.1668 16.3343 27.1668C10.0476 27.1668 5.66764 24.3561 5.66764 21.8334C5.66764 19.9454 7.90098 18.1094 11.357 17.1534L10.6463 14.5828C5.93031 15.8868 3.00098 18.6641 3.00098 21.8334C3.00098 26.3188 8.85831 29.8334 16.3343 29.8334C23.8103 29.8334 29.6676 26.3188 29.6676 21.8334C29.6676 18.6641 26.7383 15.8868 22.0236 14.5841Z" fill="#211D75"/>
</svg>
