<svg width="17" height="17" viewBox="0 0 17 17" fill="none" xmlns="http://www.w3.org/2000/svg">
<path fill-rule="evenodd" clip-rule="evenodd" d="M5.16667 3.17875C4.80667 3.19408 4.548 3.22808 4.31933 3.30541C3.92826 3.43636 3.57288 3.65623 3.28114 3.94773C2.9894 4.23924 2.76925 4.59444 2.638 4.98541C2.5 5.39941 2.5 5.91008 2.5 6.93275C2.5 6.99608 2.5 7.02808 2.50867 7.05341C2.51685 7.07794 2.53063 7.10022 2.54891 7.1185C2.56719 7.13679 2.58948 7.15056 2.614 7.15875C2.63933 7.16741 2.67133 7.16741 2.73533 7.16741H14.2647C14.3287 7.16741 14.3607 7.16741 14.386 7.15875C14.4105 7.15056 14.4328 7.13679 14.4511 7.1185C14.4694 7.10022 14.4831 7.07794 14.4913 7.05341C14.5 7.02741 14.5 6.99541 14.5 6.93141C14.5 5.90941 14.5 5.39808 14.362 4.98608C14.2309 4.59486 14.0109 4.23939 13.7191 3.94765C13.4274 3.6559 13.0719 3.43583 12.6807 3.30475C12.452 3.22808 12.1927 3.19408 11.8333 3.17875V4.83341C11.8333 5.09863 11.728 5.35299 11.5404 5.54052C11.3529 5.72806 11.0985 5.83341 10.8333 5.83341C10.5681 5.83341 10.3138 5.72806 10.1262 5.54052C9.93869 5.35299 9.83333 5.09863 9.83333 4.83341V3.16675H7.16667V4.83341C7.16667 5.09863 7.06131 5.35299 6.87377 5.54052C6.68624 5.72806 6.43188 5.83341 6.16667 5.83341C5.90145 5.83341 5.6471 5.72806 5.45956 5.54052C5.27202 5.35299 5.16667 5.09863 5.16667 4.83341V3.17875Z" fill="#211D75"/>
<path d="M2.5 8.16683C2.5 8.0095 2.5 7.93083 2.54867 7.88216C2.59733 7.8335 2.676 7.8335 2.83333 7.8335H14.1667C14.324 7.8335 14.4027 7.8335 14.4513 7.88216C14.5 7.93083 14.5 8.0095 14.5 8.16683V8.50016C14.5 11.0142 14.5 12.2715 13.7187 13.0522C12.9373 13.8328 11.6807 13.8335 9.16667 13.8335H7.83333C5.31933 13.8335 4.062 13.8335 3.28133 13.0522C2.50067 12.2708 2.5 11.0142 2.5 8.50016V8.16683Z" fill="#CDE8FE"/>
<path d="M6.16699 2.16675V4.83341M10.8337 2.16675V4.83341" stroke="#211D75" stroke-linecap="round"/>
</svg>
