<svg width="32" height="33" viewBox="0 0 32 33" fill="none" xmlns="http://www.w3.org/2000/svg">
<path d="M8.00033 30.8333H4.00033C3.3817 30.8325 2.78862 30.5865 2.35119 30.1491C1.91376 29.7116 1.6677 29.1185 1.66699 28.4999V21.8333C1.6677 21.2146 1.91376 20.6215 2.35119 20.1841C2.78862 19.7467 3.3817 19.5006 4.00033 19.4999H8.00033C8.61895 19.5006 9.21203 19.7467 9.64946 20.1841C10.0869 20.6215 10.333 21.2146 10.3337 21.8333V28.4999C10.333 29.1185 10.0869 29.7116 9.64946 30.1491C9.21203 30.5865 8.61895 30.8325 8.00033 30.8333ZM4.00033 21.4999C3.91192 21.4999 3.82714 21.535 3.76462 21.5975C3.70211 21.6601 3.66699 21.7448 3.66699 21.8333V28.4999C3.66699 28.5883 3.70211 28.6731 3.76462 28.7356C3.82714 28.7981 3.91192 28.8333 4.00033 28.8333H8.00033C8.08873 28.8333 8.17352 28.7981 8.23603 28.7356C8.29854 28.6731 8.33366 28.5883 8.33366 28.4999V21.8333C8.33366 21.7448 8.29854 21.6601 8.23603 21.5975C8.17352 21.535 8.08873 21.4999 8.00033 21.4999H4.00033ZM18.0003 30.8333H14.0003C13.3817 30.8325 12.7886 30.5865 12.3512 30.1491C11.9138 29.7116 11.6677 29.1185 11.667 28.4999V16.4999C11.6677 15.8813 11.9138 15.2882 12.3512 14.8508C12.7886 14.4133 13.3817 14.1673 14.0003 14.1666H18.0003C18.6189 14.1673 19.212 14.4133 19.6495 14.8508C20.0869 15.2882 20.333 15.8813 20.3337 16.4999V28.4999C20.333 29.1185 20.0869 29.7116 19.6495 30.1491C19.212 30.5865 18.6189 30.8325 18.0003 30.8333ZM14.0003 16.1666C13.9119 16.1666 13.8271 16.2017 13.7646 16.2642C13.7021 16.3267 13.667 16.4115 13.667 16.4999V28.4999C13.667 28.5883 13.7021 28.6731 13.7646 28.7356C13.8271 28.7981 13.9119 28.8333 14.0003 28.8333H18.0003C18.0887 28.8333 18.1735 28.7981 18.236 28.7356C18.2985 28.6731 18.3337 28.5883 18.3337 28.4999V16.4999C18.3337 16.4115 18.2985 16.3267 18.236 16.2642C18.1735 16.2017 18.0887 16.1666 18.0003 16.1666H14.0003ZM28.0003 30.8333H24.0003C23.3817 30.8325 22.7886 30.5865 22.3512 30.1491C21.9138 29.7116 21.6677 29.1185 21.667 28.4999V11.1666C21.6677 10.548 21.9138 9.95488 22.3512 9.51745C22.7886 9.08002 23.3817 8.83396 24.0003 8.83325H28.0003C28.6189 8.83396 29.212 9.08002 29.6495 9.51745C30.0869 9.95488 30.333 10.548 30.3337 11.1666V28.4999C30.333 29.1185 30.0869 29.7116 29.6495 30.1491C29.212 30.5865 28.6189 30.8325 28.0003 30.8333ZM24.0003 10.8333C23.9119 10.8333 23.8271 10.8684 23.7646 10.9309C23.7021 10.9934 23.667 11.0782 23.667 11.1666V28.4999C23.667 28.5883 23.7021 28.6731 23.7646 28.7356C23.8271 28.7981 23.9119 28.8333 24.0003 28.8333H28.0003C28.0887 28.8333 28.1735 28.7981 28.236 28.7356C28.2985 28.6731 28.3337 28.5883 28.3337 28.4999V11.1666C28.3337 11.0782 28.2985 10.9934 28.236 10.9309C28.1735 10.8684 28.0887 10.8333 28.0003 10.8333H24.0003Z" fill="#211D75"/>
<path d="M5.33311 13.5C5.13545 13.4999 4.94228 13.4411 4.778 13.3312C4.61371 13.2213 4.48567 13.0652 4.41006 12.8826C4.33444 12.7 4.31464 12.4991 4.35315 12.3052C4.39166 12.1113 4.48676 11.9332 4.62644 11.7934L9.95977 6.46004C10.1079 6.31156 10.2991 6.21349 10.5061 6.17974C10.7131 6.146 10.9255 6.17829 11.1131 6.27204L15.8024 8.61604L21.9598 2.46004C22.1493 2.2834 22.4001 2.18724 22.6591 2.19181C22.9182 2.19638 23.1654 2.30133 23.3486 2.48454C23.5318 2.66776 23.6368 2.91494 23.6413 3.17401C23.6459 3.43308 23.5497 3.68381 23.3731 3.87337L16.7064 10.54C16.5581 10.6882 16.367 10.786 16.16 10.8197C15.9531 10.8535 15.7408 10.8214 15.5531 10.728L10.8638 8.38404L6.03977 13.2067C5.94727 13.2999 5.83717 13.3739 5.71586 13.4242C5.59455 13.4746 5.46445 13.5004 5.33311 13.5Z" fill="#7FBDE7"/>
</svg>
