<svg width="24" height="25" viewBox="0 0 24 25" fill="none" xmlns="http://www.w3.org/2000/svg">
<path d="M22.5503 1.94187C22.104 1.49562 21.5096 1.25 20.8796 1.25C20.2496 1.25 19.6553 1.49562 19.209 1.94187C18.2884 2.86437 18.2884 4.36438 19.209 5.28688C19.6553 5.73313 20.2496 5.97875 20.8796 5.97875C21.5115 5.97875 22.104 5.73313 22.5521 5.28688C23.4728 4.36438 23.4728 2.86437 22.5503 1.94187ZM19.9459 2.68062C20.1953 2.43125 20.5271 2.29437 20.8778 2.29437C21.2284 2.29437 21.5621 2.43125 21.8115 2.68062C22.3271 3.19625 22.3271 4.03437 21.8115 4.54813C21.6891 4.67101 21.5436 4.76841 21.3833 4.83471C21.223 4.90101 21.0512 4.93488 20.8778 4.93437C20.5253 4.93437 20.1934 4.7975 19.9459 4.54813C19.4321 4.03437 19.4321 3.19625 19.9459 2.68062Z" fill="#E2A610"/>
<path d="M19.7834 6.30321L18.1953 4.71321L19.3278 3.57884C19.4487 3.45816 19.6126 3.39038 19.7834 3.39038C19.9543 3.39038 20.1181 3.45816 20.2391 3.57884L20.9178 4.25759C21.0384 4.37819 21.1061 4.54174 21.1061 4.71228C21.1061 4.88281 21.0384 5.04636 20.9178 5.16696L19.7834 6.30321Z" fill="#FFCA28"/>
<path d="M20.1922 5.89241C20.1922 5.89241 20.4416 5.39179 19.7722 4.72241C19.1028 4.05304 18.5966 4.30991 18.5966 4.30991L18.1953 4.71304L19.7834 6.30304L20.1922 5.89241Z" fill="#E2A610"/>
<path d="M11.6947 23.7501C17.735 23.7501 22.6316 18.8501 22.6316 12.8057C22.6316 6.76129 17.735 1.86133 11.6947 1.86133C5.65442 1.86133 0.757812 6.76129 0.757812 12.8057C0.757812 18.8501 5.65442 23.7501 11.6947 23.7501Z" fill="#FFCA28"/>
<path d="M11.694 21.6781C16.5911 21.6781 20.5609 17.7058 20.5609 12.8056C20.5609 7.90546 16.5911 3.93311 11.694 3.93311C6.79698 3.93311 2.82715 7.90546 2.82715 12.8056C2.82715 17.7058 6.79698 21.6781 11.694 21.6781Z" fill="white"/>
<path d="M12.8963 14.0094L11.6945 19.205L10.4926 14.0094L5.29883 12.8056L10.4926 11.6038L11.6945 6.40625L12.8963 11.6038L18.0901 12.8056L12.8963 14.0094Z" fill="#E0C3AB"/>
<path d="M13.3931 12.8056L16.2169 17.3319L11.6944 14.5062L7.17188 17.3319L9.99563 12.8056L7.17188 8.28125L11.6944 11.105L16.2169 8.28125L13.3931 12.8056Z" fill="#B2947C"/>
<path opacity="0.32" d="M9.45894 16.8013C9.45894 16.8013 11.8627 15.0969 12.7739 14.1857C13.6871 13.2763 15.6108 10.6007 15.6108 10.6007C16.1264 10.0288 16.7058 8.58318 16.8671 8.16318C16.8839 8.11818 16.8408 8.07318 16.7958 8.09005C16.4283 8.23068 15.2639 8.69005 14.4521 9.20755C13.4377 9.8563 11.6227 11.3394 10.7771 12.1851C9.93144 13.0307 8.83269 14.6601 8.20831 15.5469C7.68706 16.2894 7.03457 17.6694 6.83769 18.0988C6.81519 18.1457 6.86394 18.1944 6.91081 18.1738C7.35331 17.9882 8.78769 17.3563 9.45894 16.8013Z" fill="#212121"/>
<path d="M15.4984 10.3363C16.0347 9.65196 16.5428 8.30383 16.6928 7.88571C16.7116 7.83508 16.6628 7.78633 16.6103 7.80321C16.1922 7.95321 14.8459 8.46321 14.1616 8.99946C13.3459 9.63883 10.6328 11.8682 10.6328 11.8682L12.6297 13.867C12.6316 13.867 14.8591 11.152 15.4984 10.3363Z" fill="#F44336"/>
<path d="M7.7639 15.4025C7.22765 16.0868 6.71953 17.435 6.56953 17.8531C6.55078 17.9037 6.59953 17.9525 6.65203 17.9356C7.07015 17.7856 8.4164 17.2756 9.10078 16.7393C9.9164 16.1 12.6295 13.8706 12.6295 13.8706L10.6308 11.8718C10.6308 11.8718 8.40328 14.585 7.7639 15.4025Z" fill="#2F7889"/>
<path d="M11.6304 14.2907C12.4133 14.2907 13.0479 13.6552 13.0479 12.8713C13.0479 12.0874 12.4133 11.4519 11.6304 11.4519C10.8475 11.4519 10.2129 12.0874 10.2129 12.8713C10.2129 13.6552 10.8475 14.2907 11.6304 14.2907Z" fill="#94D1E0"/>
<path d="M16.9609 7.53505C16.8402 7.41413 16.7725 7.25026 16.7725 7.07942C16.7725 6.90858 16.8402 6.74472 16.9609 6.6238L17.6284 5.9563L18.5397 6.86755L17.874 7.53505C17.8142 7.59522 17.7431 7.64297 17.6647 7.67556C17.5864 7.70814 17.5023 7.72491 17.4175 7.72491C17.3326 7.72491 17.2486 7.70814 17.1702 7.67556C17.0919 7.64297 17.0208 7.59522 16.9609 7.53505Z" fill="#F44336"/>
<path d="M6.42738 18.0763C6.54806 18.1972 6.61584 18.3611 6.61584 18.5319C6.61584 18.7028 6.54806 18.8666 6.42738 18.9876L5.75988 19.6551L4.84863 18.7438L5.51426 18.0763C5.6355 17.9555 5.79967 17.8877 5.97082 17.8877C6.14197 17.8877 6.30614 17.9555 6.42738 18.0763Z" fill="#B2947C"/>
<path d="M19.1433 12.8056C19.1433 12.4494 19.432 12.1606 19.7883 12.1606H20.7295V13.4506H19.7883C19.6172 13.4506 19.4532 13.3827 19.3322 13.2617C19.2112 13.1408 19.1433 12.9767 19.1433 12.8056ZM4.24641 12.8056C4.24641 13.1619 3.95766 13.4506 3.60141 13.4506H2.66016V12.1606H3.60141C3.95766 12.1606 4.24641 12.4494 4.24641 12.8056Z" fill="#E0C3AB"/>
<path d="M16.9612 18.0763C17.0821 17.9556 17.246 17.8878 17.4168 17.8878C17.5877 17.8878 17.7515 17.9556 17.8725 18.0763L18.5381 18.7438L17.6268 19.6551L16.9593 18.9875C16.8394 18.8661 16.7722 18.7022 16.7726 18.5315C16.7729 18.3608 16.8407 18.1972 16.9612 18.0763ZM6.42746 7.53505C6.30654 7.65573 6.14268 7.72351 5.97184 7.72351C5.801 7.72351 5.63713 7.65573 5.51621 7.53505L4.85059 6.86755L5.76184 5.9563L6.42934 6.6238C6.54931 6.74521 6.61644 6.90912 6.61609 7.07981C6.61574 7.2505 6.54793 7.41413 6.42746 7.53505Z" fill="#B2947C"/>
<path d="M11.6948 20.2588C12.0511 20.2588 12.3398 20.5475 12.3398 20.9038V21.8469H11.0517V20.9038C11.0513 20.8191 11.0677 20.7352 11.0998 20.6569C11.132 20.5786 11.1793 20.5075 11.2391 20.4475C11.2989 20.3876 11.3699 20.3401 11.4481 20.3077C11.5263 20.2753 11.6102 20.2587 11.6948 20.2588ZM11.6948 5.35253C11.5237 5.35253 11.3597 5.28457 11.2387 5.16361C11.1178 5.04265 11.0498 4.87859 11.0498 4.70753V3.7644H12.3379V4.70753C12.3398 5.06378 12.0511 5.35253 11.6948 5.35253Z" fill="#E0C3AB"/>
<path d="M11.694 21.6781C16.5911 21.6781 20.5609 17.7058 20.5609 12.8056C20.5609 7.90546 16.5911 3.93311 11.694 3.93311C6.79698 3.93311 2.82715 7.90546 2.82715 12.8056C2.82715 17.7058 6.79698 21.6781 11.694 21.6781Z" stroke="#E2A610" stroke-width="0.375" stroke-miterlimit="10"/>
<path d="M1.63458 12.6724C1.63458 12.6724 1.23708 10.6587 2.29646 8.16493C3.86021 4.48618 7.23708 2.46118 10.869 2.30368C13.5933 2.18555 15.1646 3.08368 15.1646 3.08368C15.1646 3.08368 12.9483 2.9018 11.4202 2.9693C7.73396 3.13243 5.17271 4.8143 3.41771 7.69055C1.97396 10.0606 1.63458 12.6724 1.63458 12.6724Z" fill="#FFF59D"/>
</svg>
