<svg width="80" height="80" viewBox="0 0 80 80" fill="none" xmlns="http://www.w3.org/2000/svg">
<path d="M33.3337 55.0001L53.3337 40.0001L33.3337 25.0001M73.3337 40.0001C73.3337 21.5334 58.467 6.66675 40.0003 6.66675C36.1003 6.66675 32.3337 7.30008 28.7337 8.53341L31.067 15.0001C33.9003 13.8667 36.867 13.2334 40.0003 13.2334C54.7003 13.2334 66.767 25.3001 66.767 40.0001C66.767 54.7001 54.7003 66.7668 40.0003 66.7668C25.3003 66.7668 13.2337 54.7001 13.2337 40.0001C13.2337 36.8667 13.867 33.7334 15.0003 30.9334L8.53366 28.7334C7.30033 32.3334 6.66699 36.1001 6.66699 40.0001C6.66699 58.4667 21.5337 73.3334 40.0003 73.3334C58.467 73.3334 73.3337 58.4667 73.3337 40.0001ZM18.2337 13.2334C21.067 13.2334 23.3337 15.6001 23.3337 18.2334C23.3337 21.0667 21.067 23.3334 18.2337 23.3334C15.6003 23.3334 13.2337 21.0667 13.2337 18.2334C13.2337 15.6001 15.6003 13.2334 18.2337 13.2334Z" fill="white"/>
</svg>
