<svg width="33" height="33" viewBox="0 0 33 33" fill="none" xmlns="http://www.w3.org/2000/svg">
<g clip-path="url(#clip0_300_341)">
<path d="M4.38477 23.916H6.32227C6.56253 23.9157 6.79288 23.8202 6.96277 23.6503C7.13266 23.4804 7.22823 23.25 7.22852 23.0098V21.0723C7.22823 20.832 7.13266 20.6017 6.96277 20.4318C6.79288 20.2619 6.56253 20.1663 6.32227 20.166H4.38477C4.1445 20.1663 3.91415 20.2619 3.74426 20.4318C3.57437 20.6017 3.4788 20.832 3.47852 21.0723V23.0098C3.4788 23.25 3.57437 23.4804 3.74426 23.6503C3.91415 23.8202 4.1445 23.9157 4.38477 23.916ZM4.41602 21.1035H6.29102V22.9785H4.41602V21.1035ZM18.2961 20.669C19.5391 20.6681 20.7434 20.2364 21.7037 19.4472C22.664 18.658 23.321 17.5603 23.5628 16.3411C23.8045 15.1218 23.6161 13.8565 23.0295 12.7606C22.4429 11.6647 21.4945 10.8062 20.3458 10.3311C19.1972 9.85613 17.9194 9.79406 16.7301 10.1555C15.5409 10.517 14.5137 11.2796 13.8237 12.3135C13.1337 13.3473 12.8234 14.5885 12.9459 15.8254C13.0683 17.0623 13.6159 18.2186 14.4952 19.0971C14.994 19.5965 15.5866 19.9925 16.2388 20.2622C16.8911 20.532 17.5903 20.6702 18.2961 20.669ZM18.2434 15.0098H13.8707C13.9124 14.3516 14.1005 13.711 14.4212 13.1348H18.2434C18.3677 13.1348 18.4869 13.0854 18.5748 12.9975C18.6628 12.9096 18.7121 12.7903 18.7121 12.666C18.7121 12.5417 18.6628 12.4225 18.5748 12.3346C18.4869 12.2467 18.3677 12.1973 18.2434 12.1973H15.1209C15.1335 12.1843 15.1453 12.1709 15.1581 12.1581C15.9914 11.3308 17.1186 10.8674 18.2929 10.8695C19.4671 10.8716 20.5926 11.339 21.4229 12.1693C22.2533 12.9996 22.7207 14.1252 22.7228 15.2994C22.7249 16.4736 22.2615 17.6009 21.4342 18.4341C20.8532 19.0158 20.1218 19.4245 19.322 19.6147C18.5221 19.8048 17.6851 19.7689 16.9045 19.511C16.1239 19.253 15.4303 18.7831 14.9012 18.1539C14.3721 17.5246 14.0284 16.7606 13.9083 15.9473H18.2434C18.3677 15.9473 18.4869 15.8979 18.5748 15.81C18.6628 15.7221 18.7121 15.6028 18.7121 15.4785C18.7121 15.3542 18.6628 15.235 18.5748 15.1471C18.4869 15.0592 18.3677 15.0098 18.2434 15.0098ZM7.8302 3.41145C7.73749 3.41145 7.64686 3.43894 7.56978 3.49045C7.49269 3.54196 7.43261 3.61517 7.39713 3.70082C7.36166 3.78647 7.35237 3.88072 7.37046 3.97165C7.38855 4.06258 7.43319 4.1461 7.49875 4.21166C7.5643 4.27722 7.64783 4.32186 7.73875 4.33995C7.82968 4.35803 7.92393 4.34875 8.00959 4.31327C8.09524 4.27779 8.16845 4.21771 8.21995 4.14063C8.27146 4.06354 8.29895 3.97291 8.29895 3.8802C8.29895 3.75588 8.24957 3.63665 8.16166 3.54875C8.07375 3.46084 7.95452 3.41145 7.8302 3.41145ZM9.23645 16.416C9.23645 16.5403 9.28584 16.6596 9.37375 16.7475C9.46165 16.8354 9.58088 16.8848 9.7052 16.8848H11.2393C11.496 18.0208 12.023 19.0781 12.7756 19.9669C13.5282 20.8557 14.4841 21.5499 15.5622 21.9905C16.6403 22.431 17.8088 22.605 18.9684 22.4976C20.1281 22.3902 21.2448 22.0046 22.2236 21.3735L22.8928 22.0428C22.7805 22.1725 22.7213 22.34 22.7273 22.5115C22.7334 22.683 22.804 22.8459 22.9252 22.9675L27.1187 27.1609C27.3185 27.3607 27.5556 27.5191 27.8166 27.6272C28.0776 27.7353 28.3573 27.791 28.6398 27.791C28.9223 27.791 29.202 27.7354 29.463 27.6273C29.724 27.5192 29.9612 27.3607 30.161 27.161C30.3607 26.9612 30.5192 26.7241 30.6273 26.4631C30.7354 26.2021 30.791 25.9223 30.7911 25.6398C30.7911 25.3573 30.7354 25.0776 30.6273 24.8166C30.5192 24.5556 30.3608 24.3185 30.161 24.1187L25.9675 19.9252C25.8459 19.8041 25.683 19.7335 25.5115 19.7275C25.3401 19.7215 25.1727 19.7806 25.043 19.8929L24.3737 19.2236C25.3434 17.723 25.7236 15.9166 25.4411 14.1524C25.1585 12.3882 24.2333 10.7909 22.8435 9.66806C21.4538 8.54522 19.6977 7.97626 17.9135 8.07074C16.1293 8.16521 14.4432 8.91644 13.1798 10.1798C13.1327 10.2268 13.0865 10.2743 13.0412 10.3223H9.70527C9.58095 10.3223 9.46172 10.3717 9.37381 10.4596C9.2859 10.5475 9.23652 10.6668 9.23652 10.7911C9.23652 10.9154 9.2859 11.0346 9.37381 11.1225C9.46172 11.2104 9.58095 11.2598 9.70527 11.2598H12.2906C11.3659 12.6388 10.9432 14.2938 11.0933 15.9473H9.70527C9.58095 15.9473 9.46172 15.9967 9.37381 16.0846C9.2859 16.1725 9.23652 16.2918 9.23652 16.4161L9.23645 16.416ZM25.372 20.8861L25.3726 20.8855L25.3732 20.8849L25.4873 20.7708L29.498 24.7816C29.7253 25.0094 29.853 25.318 29.853 25.6398C29.853 25.9616 29.7253 26.2702 29.498 26.498C29.3853 26.6107 29.2515 26.7001 29.1043 26.7611C28.9571 26.8221 28.7992 26.8535 28.6399 26.8535C28.4805 26.8535 28.3227 26.8221 28.1754 26.7611C28.0282 26.7001 27.8944 26.6107 27.7817 26.498L23.7709 22.4872L25.372 20.8861ZM24.3782 20.554L23.554 21.3782L22.9839 20.808C23.1307 20.6829 23.2736 20.5511 23.4126 20.4126C23.5513 20.2739 23.6831 20.131 23.808 19.9839L24.3782 20.554ZM13.8426 10.8426C14.7234 9.96181 15.8456 9.36195 17.0674 9.11892C18.2891 8.87589 19.5555 9.00061 20.7063 9.4773C21.8572 9.95399 22.8409 10.7612 23.5329 11.797C24.225 12.8327 24.5944 14.0504 24.5944 15.2961C24.5944 16.5418 24.225 17.7595 23.533 18.7952C22.8409 19.831 21.8573 20.6382 20.7064 21.1149C19.5556 21.5917 18.2892 21.7164 17.0675 21.4734C15.8457 21.2304 14.7235 20.6305 13.8426 19.7497C13.2554 19.1662 12.7894 18.4723 12.4715 17.708C12.1535 16.9437 11.9898 16.124 11.9898 15.2962C11.9898 14.4683 12.1535 13.6487 12.4715 12.8844C12.7894 12.1201 13.2554 11.4262 13.8426 10.8426H13.8426ZM30.3223 0.478516H3.00977C2.38838 0.47921 1.79264 0.726364 1.35325 1.16575C0.913864 1.60514 0.66671 2.20088 0.666016 2.82227L0.666016 30.1348C0.66671 30.7562 0.913864 31.3519 1.35325 31.7913C1.79264 32.2307 2.38838 32.4778 3.00977 32.4785H30.3223C30.9437 32.4778 31.5394 32.2307 31.9788 31.7913C32.4182 31.3519 32.6653 30.7562 32.666 30.1348V2.82227C32.6653 2.20088 32.4182 1.60514 31.9788 1.16575C31.5394 0.726364 30.9437 0.47921 30.3223 0.478516ZM31.7285 30.1348C31.7281 30.5076 31.5798 30.865 31.3162 31.1287C31.0525 31.3923 30.6951 31.5406 30.3223 31.541H3.00977C2.63694 31.5406 2.2795 31.3923 2.01587 31.1287C1.75224 30.865 1.60395 30.5076 1.60352 30.1348V7.04102H31.7285V30.1348ZM31.7285 6.10352H1.60352V2.82227C1.60395 2.44944 1.75224 2.092 2.01587 1.82837C2.2795 1.56474 2.63694 1.41645 3.00977 1.41602H30.3223C30.6951 1.41645 31.0525 1.56474 31.3162 1.82837C31.5798 2.092 31.7281 2.44944 31.7285 2.82227V6.10352ZM5.9552 3.41145C5.86249 3.41145 5.77186 3.43894 5.69478 3.49045C5.61769 3.54196 5.55761 3.61517 5.52213 3.70082C5.48666 3.78647 5.47737 3.88072 5.49546 3.97165C5.51355 4.06258 5.55819 4.1461 5.62375 4.21166C5.6893 4.27722 5.77283 4.32186 5.86375 4.33995C5.95468 4.35803 6.04893 4.34875 6.13459 4.31327C6.22024 4.27779 6.29345 4.21771 6.34495 4.14063C6.39646 4.06354 6.42395 3.97291 6.42395 3.8802C6.42395 3.75588 6.37457 3.63665 6.28666 3.54875C6.19875 3.46084 6.07952 3.41145 5.9552 3.41145ZM4.38477 18.291H6.32227C6.56253 18.2907 6.79288 18.1952 6.96277 18.0253C7.13266 17.8554 7.22823 17.625 7.22852 17.3848V15.4473C7.22823 15.207 7.13266 14.9767 6.96277 14.8068C6.79288 14.6369 6.56253 14.5413 6.32227 14.541H4.38477C4.1445 14.5413 3.91415 14.6369 3.74426 14.8068C3.57437 14.9767 3.4788 15.207 3.47852 15.4473V17.3848C3.4788 17.625 3.57437 17.8554 3.74426 18.0253C3.91415 18.1952 4.1445 18.2907 4.38477 18.291ZM4.41602 15.4785H6.29102V17.3535H4.41602V15.4785ZM4.38477 29.541H6.32227C6.56253 29.5407 6.79288 29.4452 6.96277 29.2753C7.13266 29.1054 7.22823 28.875 7.22852 28.6348V26.6973C7.22823 26.457 7.13266 26.2267 6.96277 26.0568C6.79288 25.8869 6.56253 25.7913 6.32227 25.791H4.38477C4.1445 25.7913 3.91415 25.8869 3.74426 26.0568C3.57437 26.2267 3.4788 26.457 3.47852 26.6973V28.6348C3.4788 28.875 3.57437 29.1054 3.74426 29.2753C3.91415 29.4452 4.1445 29.5407 4.38477 29.541ZM4.41602 26.7285H6.29102V28.6035H4.41602V26.7285ZM4.38477 12.666H6.32227C6.56253 12.6657 6.79288 12.5702 6.96277 12.4003C7.13266 12.2304 7.22823 12 7.22852 11.7598V9.82227C7.22823 9.582 7.13266 9.35166 6.96277 9.18176C6.79288 9.01187 6.56253 8.9163 6.32227 8.91602H4.38477C4.1445 8.9163 3.91415 9.01187 3.74426 9.18176C3.57437 9.35166 3.4788 9.582 3.47852 9.82227V11.7598C3.4788 12 3.57437 12.2304 3.74426 12.4003C3.91415 12.5702 4.1445 12.6657 4.38477 12.666ZM4.41602 9.85352H6.29102V11.7285H4.41602V9.85352ZM9.7052 28.1348H25.6348C25.7591 28.1348 25.8783 28.0854 25.9662 27.9975C26.0541 27.9096 26.1035 27.7903 26.1035 27.666C26.1035 27.5417 26.0541 27.4225 25.9662 27.3346C25.8783 27.2467 25.7591 27.1973 25.6348 27.1973H9.7052C9.58088 27.1973 9.46165 27.2467 9.37375 27.3346C9.28584 27.4225 9.23645 27.5417 9.23645 27.666C9.23645 27.7903 9.28584 27.9096 9.37375 27.9975C9.46165 28.0854 9.58088 28.1348 9.7052 28.1348ZM4.0802 3.41145C3.98749 3.41145 3.89687 3.43894 3.81978 3.49045C3.74269 3.54196 3.68261 3.61517 3.64713 3.70082C3.61166 3.78647 3.60237 3.88072 3.62046 3.97165C3.63855 4.06258 3.68319 4.1461 3.74875 4.21166C3.8143 4.27722 3.89783 4.32186 3.98875 4.33995C4.07968 4.35803 4.17393 4.34875 4.25959 4.31327C4.34524 4.27779 4.41845 4.21771 4.46995 4.14063C4.52146 4.06354 4.54895 3.97291 4.54895 3.8802C4.54895 3.81865 4.53683 3.75769 4.51327 3.70082C4.48971 3.64395 4.45519 3.59227 4.41166 3.54875C4.36813 3.50522 4.31646 3.47069 4.25959 3.44713C4.20271 3.42358 4.14176 3.41145 4.0802 3.41145ZM9.7052 22.5098H12.6184C12.7427 22.5098 12.8619 22.4604 12.9498 22.3725C13.0378 22.2846 13.0871 22.1653 13.0871 22.041C13.0871 21.9167 13.0378 21.7975 12.9498 21.7096C12.8619 21.6217 12.7427 21.5723 12.6184 21.5723H9.7052C9.58088 21.5723 9.46165 21.6217 9.37375 21.7096C9.28584 21.7975 9.23645 21.9167 9.23645 22.041C9.23645 22.1653 9.28584 22.2846 9.37375 22.3725C9.46165 22.4604 9.58088 22.5098 9.7052 22.5098Z" fill="#211D75"/>
</g>
<defs>
<clipPath id="clip0_300_341">
<rect width="32" height="32" fill="white" transform="translate(0.666016 0.5)"/>
</clipPath>
</defs>
</svg>
